<?xml version="1.0" encoding="UTF-8" standalone="no"?>
<!-- Created with Inkscape (http://www.inkscape.org/) -->

<svg
   xmlns:dc="http://purl.org/dc/elements/1.1/"
   xmlns:cc="http://creativecommons.org/ns#"
   xmlns:rdf="http://www.w3.org/1999/02/22-rdf-syntax-ns#"
   xmlns:svg="http://www.w3.org/2000/svg"
   xmlns="http://www.w3.org/2000/svg"
   xmlns:sodipodi="http://sodipodi.sourceforge.net/DTD/sodipodi-0.dtd"
   xmlns:inkscape="http://www.inkscape.org/namespaces/inkscape"
   id="svg3019"
   version="1.1"
   inkscape:version="0.48.4 r9939"
   width="289.495"
   height="145.94376"
   xml:space="preserve"
   sodipodi:docname="queens_logo.svg"><title
     id="title3337">CUNY Queens College Logo</title><metadata
     id="metadata3025"><rdf:RDF><cc:Work
         rdf:about=""><dc:format>image/svg+xml</dc:format><dc:type
           rdf:resource="http://purl.org/dc/dcmitype/StillImage" /><dc:title>CUNY Queens College Logo</dc:title></cc:Work></rdf:RDF></metadata><defs
     id="defs3023"><clipPath
       clipPathUnits="userSpaceOnUse"
       id="clipPath3033"><path
         d="M 0,0 792,0 792,612 0,612 0,0 z"
         id="path3035"
         inkscape:connector-curvature="0" /></clipPath><clipPath
       clipPathUnits="userSpaceOnUse"
       id="clipPath3065"><path
         d="m 33,527.364 87.435,0 0,67.416 -87.435,0 0,-67.416 z"
         id="path3067"
         inkscape:connector-curvature="0" /></clipPath><clipPath
       clipPathUnits="userSpaceOnUse"
       id="clipPath3165"><path
         d="M 0,0 792,0 792,612 0,612 0,0 z"
         id="path3167"
         inkscape:connector-curvature="0" /></clipPath><clipPath
       clipPathUnits="userSpaceOnUse"
       id="clipPath3183"><path
         d="m 171.137,339.947 198.138,0 0,64.518 -198.138,0 0,-64.518 z"
         id="path3185"
         inkscape:connector-curvature="0" /></clipPath><clipPath
       clipPathUnits="userSpaceOnUse"
       id="clipPath3257"><path
         d="m 479.001,339.81 198.136,0 0,64.518 -198.136,0 0,-64.518 z"
         id="path3259"
         inkscape:connector-curvature="0" /></clipPath><clipPath
       clipPathUnits="userSpaceOnUse"
       id="clipPath3329"><path
         d="M 0,0 792,0 792,612 0,612 0,0 z"
         id="path3331"
         inkscape:connector-curvature="0" /></clipPath></defs><sodipodi:namedview
     pagecolor="#ffffff"
     bordercolor="#666666"
     borderopacity="1"
     objecttolerance="10"
     gridtolerance="10"
     guidetolerance="10"
     inkscape:pageopacity="0"
     inkscape:pageshadow="2"
     inkscape:window-width="1920"
     inkscape:window-height="1005"
     id="namedview3021"
     showgrid="false"
     fit-margin-top="0"
     fit-margin-left="0"
     fit-margin-right="0"
     fit-margin-bottom="0"
     inkscape:zoom="0.9983453"
     inkscape:cx="-83.3325"
     inkscape:cy="-139.67926"
     inkscape:window-x="-9"
     inkscape:window-y="-9"
     inkscape:window-maximized="1"
     inkscape:current-layer="g3027" /><g
     id="g3027"
     inkscape:groupmode="layer"
     inkscape:label="QC_BGG_Public_07_06_09"
     transform="matrix(1.25,0,0,-1.25,-578.3325,538.05875)"><g
       id="g3253"><g
         id="g3255"
         clip-path="url(#clipPath3257)"><g
           id="g3261"
           transform="translate(575.1276,359.9763)"><path
             d="M 0,0 C -0.307,-0.178 -0.621,-0.319 -0.943,-0.425 -1.264,-0.532 -1.589,-0.608 -1.916,-0.653 -2.242,-0.697 -2.58,-0.72 -2.931,-0.72 c -0.647,0 -1.226,0.098 -1.739,0.295 -0.512,0.195 -0.956,0.486 -1.333,0.869 -0.377,0.383 -0.66,0.831 -0.847,1.343 -0.188,0.514 -0.282,1.076 -0.282,1.69 0,0.703 0.111,1.319 0.332,1.848 0.221,0.527 0.531,0.967 0.93,1.317 0.398,0.349 0.852,0.607 1.36,0.775 0.51,0.168 1.047,0.252 1.612,0.252 0.842,0 1.797,-0.208 2.867,-0.62 l 0,-2.17 C -0.399,5.132 -0.764,5.34 -1.123,5.508 -1.481,5.674 -1.904,5.757 -2.389,5.757 -2.821,5.757 -3.226,5.664 -3.6,5.475 -3.976,5.285 -4.278,5.017 -4.506,4.668 -4.735,4.317 -4.849,3.91 -4.849,3.442 c 0,-0.413 0.099,-0.792 0.3,-1.137 0.2,-0.343 0.478,-0.615 0.832,-0.818 0.356,-0.203 0.758,-0.304 1.204,-0.304 0.36,0 0.701,0.048 1.023,0.145 0.322,0.096 0.593,0.203 0.813,0.321 0.219,0.119 0.444,0.258 0.677,0.42 L 0,0 z"
             style="fill:#e71939;fill-opacity:1;fill-rule:nonzero;stroke:none"
             id="path3263"
             inkscape:connector-curvature="0" /></g><g
           id="g3265"
           transform="translate(587.6295,363.4533)"><path
             d="M 0,0 C 0,0.307 -0.042,0.586 -0.124,0.84 -0.206,1.093 -0.33,1.314 -0.497,1.501 -0.662,1.686 -0.865,1.832 -1.104,1.936 -1.344,2.04 -1.621,2.092 -1.936,2.092 -2.535,2.092 -3.008,1.899 -3.35,1.515 -3.693,1.129 -3.864,0.624 -3.864,0 c 0,-0.625 0.172,-1.132 0.517,-1.518 0.345,-0.387 0.814,-0.582 1.411,-0.582 0.412,0 0.762,0.091 1.051,0.27 0.29,0.179 0.509,0.426 0.66,0.742 C -0.076,-0.771 0,-0.409 0,0 m 2.282,0 c 0,-0.764 -0.16,-1.464 -0.479,-2.105 -0.32,-0.64 -0.796,-1.15 -1.428,-1.527 -0.632,-0.377 -1.402,-0.565 -2.311,-0.565 -0.917,0 -1.695,0.197 -2.33,0.589 -0.636,0.392 -1.109,0.91 -1.418,1.549 -0.309,0.642 -0.463,1.328 -0.463,2.059 0,0.735 0.153,1.421 0.461,2.06 0.308,0.638 0.779,1.153 1.417,1.544 0.638,0.392 1.416,0.588 2.333,0.588 0.688,0 1.299,-0.113 1.837,-0.338 C 0.438,3.631 0.879,3.326 1.226,2.944 1.573,2.561 1.836,2.114 2.014,1.605 2.192,1.097 2.282,0.561 2.282,0"
             style="fill:#e71939;fill-opacity:1;fill-rule:nonzero;stroke:none"
             id="path3267"
             inkscape:connector-curvature="0" /></g><g
           id="g3269"
           transform="translate(602.434,359.3627)"><path
             d="m 0,0 -5.641,0 0,8.17 2.239,0 0,-6.214 L 0,1.956 0,0 z"
             style="fill:#e71939;fill-opacity:1;fill-rule:nonzero;stroke:none"
             id="path3271"
             inkscape:connector-curvature="0" /></g><g
           id="g3273"
           transform="translate(614.8666,359.3627)"><path
             d="m 0,0 -5.643,0 0,8.17 2.24,0 0,-6.214 L 0,1.956 0,0 z"
             style="fill:#e71939;fill-opacity:1;fill-rule:nonzero;stroke:none"
             id="path3275"
             inkscape:connector-curvature="0" /></g><g
           id="g3277"
           transform="translate(627.2552,359.3627)"><path
             d="m 0,0 -5.599,0 0,8.17 5.509,0 0,-1.64 -3.269,0 0,-1.497 3.117,0 0,-1.645 -3.117,0 0,-1.745 L 0,1.643 0,0 z"
             style="fill:#e71939;fill-opacity:1;fill-rule:nonzero;stroke:none"
             id="path3279"
             inkscape:connector-curvature="0" /></g><g
           id="g3281"
           transform="translate(641.246,359.9398)"><path
             d="M 0,0 C -0.161,-0.067 -0.297,-0.121 -0.411,-0.165 -0.527,-0.209 -0.636,-0.248 -0.741,-0.282 -0.847,-0.319 -1,-0.364 -1.2,-0.418 c -0.339,-0.088 -0.678,-0.153 -1.014,-0.198 -0.339,-0.044 -0.694,-0.068 -1.07,-0.068 -0.753,0 -1.45,0.152 -2.09,0.454 -0.639,0.303 -1.151,0.772 -1.535,1.409 -0.383,0.636 -0.575,1.419 -0.575,2.346 0,0.597 0.098,1.184 0.296,1.759 0.198,0.576 0.502,1.037 0.908,1.382 0.336,0.287 0.677,0.506 1.022,0.658 0.345,0.15 0.681,0.253 1.01,0.303 0.328,0.052 0.691,0.078 1.086,0.078 0.655,0 1.195,-0.055 1.619,-0.164 0.425,-0.107 0.892,-0.249 1.399,-0.427 l 0,-1.933 C -0.481,5.397 -0.836,5.578 -1.21,5.722 -1.586,5.869 -2.054,5.941 -2.615,5.941 -3.261,5.941 -3.779,5.807 -4.166,5.537 -4.555,5.268 -4.822,4.947 -4.976,4.574 -5.127,4.2 -5.202,3.839 -5.202,3.489 c 0,-0.412 0.087,-0.792 0.262,-1.14 0.175,-0.347 0.439,-0.628 0.793,-0.837 0.354,-0.21 0.781,-0.314 1.281,-0.314 0.285,0 0.589,0.039 0.911,0.121 l 0,0.963 -1.007,0 0,1.644 L 0,3.926 0,0 z"
             style="fill:#e71939;fill-opacity:1;fill-rule:nonzero;stroke:none"
             id="path3283"
             inkscape:connector-curvature="0" /></g><g
           id="g3285"
           transform="translate(654.097,359.3627)"><path
             d="m 0,0 -5.6,0 0,8.17 5.508,0 0,-1.64 -3.269,0 0,-1.497 3.119,0 0,-1.645 -3.119,0 0,-1.745 L 0,1.643 0,0 z"
             style="fill:#e71939;fill-opacity:1;fill-rule:nonzero;stroke:none"
             id="path3287"
             inkscape:connector-curvature="0" /></g><g
           id="g3289"
           transform="translate(542.713,385.8773)"
           style="fill:#000000"><path
             d="m 0,0 c 0,-2.777 0.479,-4.862 1.437,-6.254 0.956,-1.394 2.391,-2.089 4.305,-2.089 1.68,0 3.007,0.695 3.983,2.089 0.976,1.392 1.463,3.468 1.463,6.228 0,2.684 -0.48,4.741 -1.441,6.171 C 8.786,7.576 7.393,8.291 5.567,8.291 3.769,8.291 2.393,7.592 1.437,6.196 0.479,4.799 0,2.733 0,0 M 6.727,-8.916 C 6.381,-8.959 6.012,-8.98 5.616,-8.98 c -2.396,0 -4.353,0.825 -5.866,2.478 -1.512,1.65 -2.268,3.847 -2.268,6.589 0,2.66 0.766,4.797 2.303,6.414 C 1.32,8.12 3.242,8.93 5.55,8.93 6.971,8.93 8.345,8.57 9.672,7.851 10.999,7.134 12.002,6.073 12.685,4.668 13.366,3.262 13.707,1.706 13.707,0 c 0,-1.988 -0.446,-3.746 -1.336,-5.274 -0.891,-1.528 -2.178,-2.599 -3.864,-3.21 l -3.286,-2.089 c 0.228,0.025 0.426,0.038 0.594,0.038 1.627,0 3.498,-0.426 5.616,-1.281 1.625,-0.658 2.916,-0.986 3.867,-0.986 1.32,0 2.104,0.577 2.353,1.732 l 0.467,0 c -0.124,-1.171 -0.546,-2.122 -1.265,-2.853 -0.718,-0.73 -1.645,-1.095 -2.782,-1.095 -0.747,0 -1.427,0.14 -2.039,0.42 -0.611,0.279 -1.409,0.782 -2.392,1.503 -1.758,1.299 -3.224,1.948 -4.398,1.948 -0.702,0 -1.384,-0.321 -2.043,-0.967 -0.439,-0.425 -0.743,-0.637 -0.911,-0.637 -0.264,0 -0.395,0.14 -0.395,0.421 0,0.212 0.157,0.431 0.472,0.656 0.315,0.224 0.908,0.583 1.78,1.076 0.183,0.101 0.365,0.212 0.549,0.33 l 2.033,1.352 z"
             style="fill:#000000;fill-opacity:1;fill-rule:nonzero;stroke:none"
             id="path3291"
             inkscape:connector-curvature="0" /></g><g
           id="g3293"
           transform="translate(573.4979,393.6904)"
           style="fill:#000000"><path
             d="M 0,0 0,-0.462 C -0.892,-0.527 -1.472,-0.688 -1.736,-0.943 -2.002,-1.198 -2.135,-1.784 -2.135,-2.7 l 0,-7.964 c 0,-1.304 0.167,-2.321 0.501,-3.051 0.621,-1.33 1.796,-1.995 3.529,-1.995 1.898,0 3.173,0.681 3.824,2.044 0.363,0.761 0.545,1.936 0.545,3.525 l 0,6.481 c 0,1.353 -0.151,2.202 -0.454,2.547 -0.303,0.345 -0.878,0.561 -1.724,0.651 l 0,0.462 5.378,0 0,-0.462 C 8.563,-0.568 7.974,-0.8 7.699,-1.162 7.423,-1.522 7.285,-2.356 7.285,-3.66 l 0,-6.481 c 0,-1.719 -0.246,-3.06 -0.737,-4.025 -0.908,-1.775 -2.634,-2.662 -5.175,-2.662 -2.512,0 -4.222,0.876 -5.129,2.626 -0.493,0.941 -0.739,2.182 -0.739,3.721 l 0,7.781 c 0,0.908 -0.129,1.489 -0.391,1.745 -0.261,0.255 -0.83,0.42 -1.707,0.493 L -6.593,0 0,0 z"
             style="fill:#000000;fill-opacity:1;fill-rule:nonzero;stroke:none"
             id="path3295"
             inkscape:connector-curvature="0" /></g><g
           id="g3297"
           transform="translate(592.9269,377.6771)"
           style="fill:#000000"><path
             d="m 0,0 c 0.856,0.096 1.409,0.26 1.664,0.489 0.252,0.23 0.379,0.813 0.379,1.748 l 0,11.077 c 0,0.882 -0.124,1.461 -0.375,1.732 C 1.419,15.318 0.863,15.486 0,15.552 l 0,0.461 12.347,0 0.08,-3.563 -0.59,0 c -0.197,1.097 -0.492,1.808 -0.886,2.13 -0.393,0.323 -1.27,0.484 -2.633,0.484 l -3.163,0 c -0.342,0 -0.553,-0.058 -0.632,-0.176 -0.08,-0.116 -0.12,-0.339 -0.12,-0.663 l 0,-5.556 3.587,0 c 0.99,0 1.623,0.158 1.895,0.471 0.272,0.315 0.491,0.952 0.658,1.912 l 0.544,0 0,-5.75 -0.544,0 C 10.37,6.266 10.146,6.904 9.874,7.215 9.601,7.528 8.973,7.684 7.99,7.684 l -3.587,0 0,-6.165 c 0,-0.493 0.146,-0.784 0.438,-0.875 0.292,-0.089 1.164,-0.132 2.62,-0.132 1.576,0 2.739,0.184 3.489,0.552 0.749,0.369 1.424,1.262 2.022,2.681 l 0.646,0 L 12.563,-0.461 0,-0.461 0,0 z"
             style="fill:#000000;fill-opacity:1;fill-rule:nonzero;stroke:none"
             id="path3299"
             inkscape:connector-curvature="0" /></g><g
           id="g3301"
           transform="translate(616.4202,377.6771)"
           style="fill:#000000"><path
             d="m 0,0 c 0.855,0.096 1.409,0.26 1.663,0.489 0.253,0.23 0.379,0.813 0.379,1.748 l 0,11.077 c 0,0.882 -0.125,1.461 -0.375,1.732 -0.25,0.272 -0.806,0.44 -1.667,0.506 l 0,0.461 12.346,0 0.08,-3.563 -0.591,0 c -0.197,1.097 -0.492,1.808 -0.885,2.13 -0.393,0.323 -1.271,0.484 -2.633,0.484 l -3.164,0 c -0.34,0 -0.552,-0.058 -0.632,-0.176 C 4.442,14.772 4.402,14.549 4.402,14.225 l 0,-5.556 3.587,0 c 0.99,0 1.623,0.158 1.894,0.471 0.273,0.315 0.492,0.952 0.659,1.912 l 0.543,0 0,-5.75 -0.543,0 C 10.368,6.266 10.145,6.904 9.871,7.215 9.6,7.528 8.971,7.684 7.989,7.684 l -3.587,0 0,-6.165 C 4.402,1.026 4.549,0.735 4.84,0.644 5.131,0.555 6.005,0.512 7.459,0.512 c 1.576,0 2.74,0.184 3.489,0.552 0.751,0.369 1.424,1.262 2.022,2.681 l 0.647,0 L 12.562,-0.461 0,-0.461 0,0 z"
             style="fill:#000000;fill-opacity:1;fill-rule:nonzero;stroke:none"
             id="path3303"
             inkscape:connector-curvature="0" /></g><g
           id="g3305"
           transform="translate(639.9121,377.6771)"
           style="fill:#000000"><path
             d="m 0,0 c 0.96,0.105 1.577,0.337 1.85,0.7 0.271,0.359 0.409,1.195 0.409,2.508 l 0,10.97 -0.319,0.401 C 1.6,15.008 1.311,15.274 1.073,15.375 0.834,15.475 0.477,15.534 0,15.552 l 0,0.461 3.965,0 8.972,-11.914 0,8.274 c 0,1.363 -0.19,2.248 -0.569,2.659 -0.25,0.265 -0.8,0.438 -1.656,0.52 l 0,0.461 5.459,0 0,-0.461 c -0.883,-0.098 -1.476,-0.329 -1.77,-0.694 -0.297,-0.366 -0.444,-1.201 -0.444,-2.504 l 0,-13.108 -0.396,0 -10.282,13.654 0,-9.692 C 3.279,1.847 3.465,0.96 3.836,0.546 4.077,0.279 4.62,0.096 5.459,0 l 0,-0.461 L 0,-0.461 0,0 z"
             style="fill:#000000;fill-opacity:1;fill-rule:nonzero;stroke:none"
             id="path3307"
             inkscape:connector-curvature="0" /></g><g
           id="g3309"
           transform="translate(667.2301,382.2235)"
           style="fill:#000000"><path
             d="m 0,0 c 0.392,-1.118 0.853,-2.009 1.381,-2.673 0.922,-1.16 2.066,-1.739 3.434,-1.739 0.74,0 1.381,0.251 1.92,0.754 0.54,0.501 0.811,1.204 0.811,2.102 0,0.811 -0.272,1.516 -0.816,2.117 C 6.375,0.941 5.627,1.513 4.488,2.275 L 2.505,3.6 C 1.908,4.005 1.432,4.415 1.077,4.828 0.418,5.615 0.09,6.481 0.09,7.431 c 0,1.256 0.389,2.302 1.169,3.136 0.779,0.834 1.811,1.252 3.097,1.252 0.53,0 1.168,-0.14 1.913,-0.42 0.744,-0.28 1.169,-0.418 1.277,-0.418 0.288,0 0.485,0.072 0.595,0.219 0.109,0.146 0.196,0.351 0.255,0.619 l 0.477,0 0.511,-5.302 -0.558,0 C 8.449,8.114 7.841,9.23 7.007,9.862 6.17,10.492 5.344,10.809 4.527,10.809 3.891,10.809 3.337,10.61 2.863,10.207 2.391,9.806 2.155,9.249 2.155,8.536 2.155,7.895 2.336,7.348 2.699,6.896 3.062,6.433 3.623,5.95 4.388,5.448 l 2.04,-1.35 C 7.705,3.255 8.606,2.482 9.131,1.775 9.648,1.062 9.906,0.219 9.906,-0.753 c 0,-1.306 -0.46,-2.395 -1.379,-3.27 -0.92,-0.876 -2.094,-1.314 -3.524,-1.314 -0.718,0 -1.469,0.147 -2.251,0.438 -0.783,0.293 -1.234,0.437 -1.346,0.437 -0.271,0 -0.455,-0.089 -0.55,-0.267 C 0.761,-4.908 0.699,-5.097 0.669,-5.3 L 0.157,-5.3 -0.534,0 0,0 z"
             style="fill:#000000;fill-opacity:1;fill-rule:nonzero;stroke:none"
             id="path3311"
             inkscape:connector-curvature="0" /></g><g
           id="g3313"
           transform="translate(499.0459,356.1743)"><path
             d="M 0,0 -0.025,0 C -0.064,0 -0.105,0 -0.144,0.001 -0.495,0.01 -1.112,0.034 -1.215,0.038 -6.643,-1.847 -13.376,-4.935 -17.6,-7.113 l 2.409,-2.408 c 2.295,1.148 6.176,3.063 9.237,4.451 C -3.786,-3.211 -0.58,-0.498 0,0"
             style="fill:#e71939;fill-opacity:1;fill-rule:nonzero;stroke:none"
             id="path3315"
             inkscape:connector-curvature="0" /></g><g
           id="g3317"
           transform="translate(506.9839,356.4109)"><path
             d="M 0,0 C 9.009,2.909 19.526,5.267 30.264,5.47 21.676,6.353 12.599,5.436 3.982,3.53 3.05,2.641 1.762,1.484 0,0"
             style="fill:#e71939;fill-opacity:1;fill-rule:nonzero;stroke:none"
             id="path3319"
             inkscape:connector-curvature="0" /></g><g
           id="g3321"
           transform="translate(498.5712,357.8734)"
           style="fill:#000000"><path
             d="m 0,0 c -4.692,0.221 -8.134,2.244 -10.313,6.083 -2.171,3.826 -3.084,9.46 -2.737,16.876 0.346,7.314 1.779,12.777 4.307,16.402 2.523,3.625 5.99,5.33 10.407,5.126 4.482,-0.213 7.819,-2.284 9.997,-6.223 2.182,-3.937 3.099,-9.485 2.758,-16.662 C 14.074,14.224 12.612,8.729 10.044,5.125 7.474,1.509 4.122,-0.195 0,0 m 39.157,1.417 c -8.706,-0.475 -23.516,-2.009 -35.73,-6.92 5.627,4.425 8.489,7.042 9.938,8.529 1.313,1.266 2.211,2.594 3.301,4.414 2.38,3.983 3.695,8.629 3.948,13.939 0.209,4.564 -0.427,8.764 -1.93,12.599 -1.491,3.833 -3.831,6.783 -6.994,8.858 -3.172,2.075 -6.495,3.187 -9.987,3.351 -5.673,0.268 -10.492,-1.668 -14.465,-5.814 -3.97,-4.145 -6.128,-9.772 -6.462,-16.882 -0.347,-7.331 1.234,-13.285 4.746,-17.875 3.435,-4.501 8.016,-6.919 13.737,-7.277 0.103,-0.005 0.721,-0.028 1.071,-0.037 0.04,-0.001 0.081,-0.001 0.12,-0.001 l 0.025,0 c -0.581,-0.499 -3.786,-3.211 -5.954,-5.07 -0.803,-0.687 -1.471,-1.261 -1.802,-1.558 -1.898,-1.621 -3.856,-3.291 -5.574,-4.755 l 4.982,-4.981 c 2.515,2.238 20.448,17.135 54.431,19.689 0,0 -2.882,0.038 -7.401,-0.209"
             style="fill:#000000;fill-opacity:1;fill-rule:nonzero;stroke:none"
             id="path3323"
             inkscape:connector-curvature="0" /></g></g></g></g></svg>